<?xml version="1.0" encoding="UTF-8"?>
<svg id="Camada_1" data-name="Camada 1" xmlns="http://www.w3.org/2000/svg" version="1.1" viewBox="0 0 126.64 118.47">
  <defs>
    <style>
      .cls-1 {
        fill: #1a56db;
        stroke-width: 0px;
      }
    </style>
  </defs>
  <path class="cls-1" d="M58.26,96.14v-2.89c0-1.79-1.32-3.33-3.1-3.55-3.16-.39-6.16-1.21-8.58-2.22-1.66-.69-2.54-2.52-2.07-4.25l.56-2.05c.57-2.09,2.84-3.18,4.84-2.36,2.99,1.23,6.49,2.09,10.21,2.09,6.01,0,9.86-3.21,9.86-7.88s-3.23-7.55-10.02-10.45c-9.38-3.93-15.66-8.67-15.66-17.49,0-7.52,4.63-13.5,12.23-15.96,1.46-.47,2.44-1.85,2.44-3.39v-3.42c0-1.98,1.6-3.58,3.58-3.58h.69c1.98,0,3.58,1.6,3.58,3.58v2.24c0,1.8,1.34,3.33,3.13,3.55,2.46.31,4.57.86,6.35,1.53s2.67,2.55,2.16,4.33l-.53,1.84c-.58,2.03-2.77,3.09-4.75,2.35-2.15-.8-4.93-1.49-8.41-1.49-6.37,0-8.92,3.59-8.92,7.06,0,4.19,3.09,6.45,11.06,9.99,10.22,4.37,14.62,9.79,14.62,18.21,0,7.87-4.69,14.33-12.92,16.79-1.49.45-2.49,1.85-2.49,3.41v4c0,1.98-1.6,3.58-3.58,3.58h-.69c-1.98,0-3.58-1.6-3.58-3.58Z"/>
  <path class="cls-1" d="M76,108.38c-2.2,0-4.21-1.46-4.82-3.68-.73-2.66.84-5.41,3.5-6.15,17.64-4.84,29.95-21.01,29.95-39.32s-12.32-34.49-29.95-39.33c-2.66-.73-4.23-3.48-3.5-6.14.73-2.66,3.48-4.23,6.14-3.5,21.97,6.03,37.31,26.16,37.31,48.97s-15.34,42.94-37.31,48.96c-.44.12-.89.18-1.33.18Z"/>
  <path class="cls-1" d="M50.64,108.38c-.44,0-.88-.06-1.33-.18-21.97-6.03-37.31-26.16-37.31-48.96S27.35,16.29,49.31,10.27c2.66-.73,5.41.84,6.14,3.5.73,2.66-.84,5.41-3.5,6.14-17.64,4.84-29.95,21.01-29.95,39.33s12.32,34.48,29.95,39.32c2.66.73,4.23,3.48,3.5,6.15-.61,2.22-2.62,3.68-4.82,3.68Z"/>
</svg>